<svg width="20" height="20" viewBox="0 0 20 20" fill="none" xmlns="http://www.w3.org/2000/svg">
<path d="M3.45781 18.1422C3.51876 18.8126 4.06729 19.3002 4.73772 19.3002H15.2614C15.9318 19.3002 16.4804 18.7923 16.5413 18.1422L17.7197 5.79004H2.27948L3.45781 18.1422Z" fill="white"/>
<path d="M17.7201 1.93002H12.5801V1.27991C12.5801 0.568849 12.0113 0 11.3002 0H8.72009C8.00903 0 7.44018 0.568849 7.44018 1.27991V1.93002H2.27991C1.56885 1.93002 1 2.49887 1 3.20993C1 3.92099 1.56885 4.48984 2.27991 4.48984H17.7201C18.4312 4.48984 19 3.92099 19 3.20993C19 2.49887 18.4312 1.93002 17.7201 1.93002Z" fill="white"/>
</svg>
